<svg width="16" height="9" viewBox="0 0 16 9" fill="none" xmlns="http://www.w3.org/2000/svg">
<path fill-rule="evenodd" clip-rule="evenodd" d="M9.04485 0.307045C9.22871 0.124789 9.47692 0.0222168 9.7358 0.0215025C9.99469 0.0207883 10.2435 0.12199 10.4283 0.303228C10.6132 0.484467 10.7193 0.73118 10.7237 0.990027C10.7281 1.24888 10.6305 1.49906 10.4519 1.68649L5.20736 8.24216C5.11723 8.33924 5.00844 8.41715 4.8875 8.47123C4.76657 8.52531 4.63597 8.55445 4.50352 8.5569C4.37106 8.55935 4.23948 8.53507 4.11662 8.48551C3.99377 8.43594 3.88217 8.36211 3.7885 8.26843L0.313605 4.79222C0.216798 4.70202 0.139152 4.59324 0.0852988 4.47237C0.0314452 4.35151 0.00248761 4.22103 0.000153344 4.08873C-0.00218092 3.95643 0.022156 3.82502 0.0717124 3.70233C0.121269 3.57964 0.195029 3.46819 0.288594 3.37462C0.382158 3.28106 0.493609 3.2073 0.616299 3.15774C0.738988 3.10819 0.870403 3.08385 1.0027 3.08618C1.135 3.08852 1.26548 3.11748 1.38634 3.17133C1.50721 3.22518 1.61599 3.30283 1.70619 3.39964L4.4572 6.14934L9.01858 0.335948C9.02676 0.325805 9.03553 0.316154 9.04485 0.307045ZM7.83619 7.05977L9.04485 8.26843C9.1385 8.36191 9.25002 8.43556 9.37275 8.48501C9.49548 8.53445 9.62691 8.55867 9.7592 8.55622C9.8915 8.55377 10.0219 8.5247 10.1428 8.47074C10.2636 8.41678 10.3723 8.33904 10.4624 8.24216L15.7069 1.68649C15.8011 1.59348 15.8756 1.48244 15.926 1.35999C15.9763 1.23755 16.0015 1.10621 15.9999 0.973832C15.9984 0.841451 15.9702 0.710739 15.917 0.589501C15.8638 0.468263 15.7867 0.358987 15.6904 0.268196C15.594 0.177406 15.4804 0.106964 15.3562 0.0610779C15.232 0.0151914 15.0999 -0.00519904 14.9676 0.00112476C14.8354 0.00744856 14.7058 0.0403571 14.5865 0.0978843C14.4673 0.155411 14.3609 0.236378 14.2736 0.335948L9.71093 6.14934L9.07376 5.51085L7.83488 7.05977H7.83619Z" fill="#CACACA"/>
</svg>
