<svg width="10" height="9" viewBox="0 0 10 9" fill="none" xmlns="http://www.w3.org/2000/svg">
<path fill-rule="evenodd" clip-rule="evenodd" d="M8.13071 0.276327C8.29599 0.0999559 8.5191 0.000694837 8.75182 3.63406e-06C8.98454 -0.000687569 9.20816 0.0972467 9.37434 0.272634C9.54052 0.448021 9.63591 0.686769 9.63987 0.93726C9.64384 1.18775 9.55607 1.42986 9.39554 1.61124L4.68106 7.95525C4.60004 8.0492 4.50224 8.1246 4.39353 8.17693C4.28482 8.22927 4.16742 8.25746 4.04835 8.25984C3.92929 8.26221 3.811 8.23871 3.70056 8.19075C3.59012 8.14278 3.48981 8.07133 3.4056 7.98068L0.28191 4.6167C0.194887 4.52941 0.125089 4.42414 0.0766781 4.30718C0.0282674 4.19021 0.00223619 4.06395 0.000137844 3.93592C-0.0019605 3.8079 0.019917 3.68072 0.0644648 3.562C0.109013 3.44327 0.175318 3.33541 0.259426 3.24487C0.343534 3.15433 0.443721 3.08295 0.554011 3.03499C0.6643 2.98703 0.782433 2.96348 0.901361 2.96574C1.02029 2.968 1.13758 2.99602 1.24623 3.04814C1.35488 3.10025 1.45266 3.17539 1.53375 3.26907L4.00672 5.93L8.10827 0.304297C8.11559 0.294449 8.12348 0.285107 8.13189 0.276327H8.13071Z" fill="white"/>
</svg>
